<svg xmlns="http://www.w3.org/2000/svg" viewBox="0 0 200 200" role="img" aria-label="FarSygil route mark sample">
  <defs>
    <linearGradient id="rm-grad" x1="0%" y1="0%" x2="100%" y2="100%">
      <stop offset="0%" stop-color="#a8e26c"></stop>
      <stop offset="55%" stop-color="#7bc241"></stop>
      <stop offset="100%" stop-color="#3f7220"></stop>
    </linearGradient>
    <filter id="rm-glow" x="-30%" y="-30%" width="160%" height="160%">
      <feGaussianBlur stdDeviation="3"></feGaussianBlur>
    </filter>
  </defs>
  <rect width="200" height="200" rx="22" fill="#0d120d"></rect>
  <path d="M30 130 L42 110 L58 96 L72 100 L86 88 L96 70 L112 58 L128 64 L142 78 L156 72 L168 86 L162 108 L150 122 L132 130 L120 144 L100 150 L84 142 L68 152 L52 144 Z" fill="none" stroke="url(#rm-grad)" stroke-width="5" stroke-linecap="round" stroke-linejoin="round" opacity="0.55" filter="url(#rm-glow)"></path>
  <path d="M30 130 L42 110 L58 96 L72 100 L86 88 L96 70 L112 58 L128 64 L142 78 L156 72 L168 86 L162 108 L150 122 L132 130 L120 144 L100 150 L84 142 L68 152 L52 144 Z" fill="none" stroke="url(#rm-grad)" stroke-width="2.35" stroke-linecap="round" stroke-linejoin="round"></path>
</svg>